<svg id="Layer_2" xmlns="http://www.w3.org/2000/svg" viewBox="0 0 50.55 46.09">
  <defs>
    <style>.cls-1 { fill: #5b727e; }</style>
  </defs>
  <g id="Layer_1-2">
    <g>
      <path class="cls-1" d="M20.74,27.14c-1.23,0-2.07-1.24-1.61-2.38,.69-1.71,2.32-3.71,6.14-3.71s5.45,2,6.14,3.71c.46,1.14-.38,2.38-1.61,2.38h-9.06Z"/>
      <path class="cls-1" d="M24.93,46.09c4.49,0,8.54-.61,12.06-1.79,0,0,.08-.03,.19-.07v1.29s13.37,0,13.37,0l-.59-.92c-.19-.29-.29-.63-.29-.98l.05-15.92h.01c0-11.82-9.99-18.62-24.92-18.62-4.49,0-8.57,.63-12.09,1.8,0-.01,.01-.02,.02-.04-.25,.09-.49,.18-.74,.27v-1.68s-10.2,0-10.2,0C.82,9.45,.01,10.25,.01,11.24V28.03s0,0,.01-.01c.23,9.77,7.28,15.95,18.53,17.61,.07,.01,.14,.02,.2,.03,.53,.08,1.06,.14,1.61,.19,.23,.02,.46,.05,.69,.07l2.22,.13,1.65,.04Zm11.1-8.84s0,0,0,.01c-2.06,3.07-6.2,4.88-11.15,4.88-.53,0-1.05-.02-1.56-.05-6.44-.42-10.85-3.45-10.85-9.99v-9.06c0-2.03,.44-3.71,1.22-5.1,0,0,0,0,0-.01,2.06-3.07,6.19-4.88,11.13-4.88,6.85,0,12.12,2.58,12.42,8.73,.13,2.76,.05,8.29-.03,11.05-.05,1.73-.49,3.2-1.18,4.43Z"/>
      <path class="cls-1" d="M8.37,0H42.18c1.03,0,1.03,3.85,0,3.85H8.37c-1.03,0-1.03-3.85,0-3.85Z"/>
    </g>
  </g>
</svg>
