<svg xmlns="http://www.w3.org/2000/svg" x="0px" y="0px" width="715.7px" height="533.4px" viewBox="0 0 715.7 533.4">
<style type="text/css">
	.st0{fill:#FBB040;}
	.st1{fill:#FFFFFF;}
</style>
<g id="text_1_">
	<g id="_x2E_guide">
		<g>
			<path d="M196.8,474.3c2.2,2.5,3.3,5.4,3.3,8.8c0,3.5-1,6.5-3.1,8.9s-4.8,3.6-8.2,3.6c-3.4,0-6.2-1.2-8.5-3.6
				c-2.2-2.4-3.4-5.4-3.4-8.9c0-3.4,1.2-6.3,3.5-8.8c2.3-2.5,5.1-3.7,8.2-3.7C191.8,470.6,194.6,471.8,196.8,474.3z"/>
			<path d="M282.4,423.4c1.5,1.3,2.3,3.2,2.3,5.5c0,1.8-0.6,3.5-1.8,5c-1.2,1.5-3.1,2.3-5.7,2.3c-1.3,0-2.6-0.5-4-1.4
				c-1.3-0.9-2.1-2-2.3-3.3c-1.1,0.3-2.2,1.4-3.3,3.1c-1.1,1.7-1.7,3.2-1.9,4.6c2.4,1.9,4.3,4.2,5.5,6.8c1.3,2.6,1.9,5.5,1.9,8.5
				c0,4.4-1.3,8.4-4,12c-2.6,3.6-6.2,6.3-10.5,8.4c-4.4,2-9,3.1-14,3.1l-3.5-0.1c-1.7-0.2-3-0.3-3.9-0.3c-1.9,0-3.5,0.3-4.7,1
				c-1.2,0.7-1.8,1.5-1.8,2.5c0,1.5,1.1,2.5,3.4,3.1c2.3,0.6,6.5,1,12.6,1.4c10.5,0.6,18.4,2.3,23.9,5c5.4,2.7,8.1,7.3,8.1,13.7
				c0,4.2-1.7,8-5.2,11.1c-3.5,3.2-7.9,5.6-13.4,7.2c-5.5,1.6-11,2.5-16.8,2.5c-10.1,0-17.3-1.5-21.8-4.4c-4.5-2.9-6.8-6.6-6.8-11.1
				c0-2.7,0.9-5.2,2.8-7.7c1.9-2.4,4.9-4.4,9.2-5.8c-3.3-0.9-5.7-2.2-7.1-4c-1.5-1.8-2.2-3.9-2.2-6.4c0-2.4,1-4.9,3-7.3
				c2-2.4,5.1-4.2,9.2-5.5c-3.7-1.4-6.7-3.6-8.9-6.7c-2.2-3.1-3.3-6.7-3.3-10.9c0-4.4,1.3-8.4,4-12c2.6-3.6,6.1-6.3,10.4-8.3
				c4.3-2,8.8-3,13.5-3c2.5,0,5.2,0.3,7.9,0.9c2.8,0.6,5.1,1.5,7,2.7c1.6-4.1,3.7-7.5,6.4-10.2c2.7-2.7,5.9-4.1,9.5-4.1
				C278.7,421.4,280.9,422.1,282.4,423.4z M231.2,502.4c-0.7,1.5-1,3-1,4.5c0,3,1.5,5.5,4.6,7.3c3,1.8,7.1,2.7,12.2,2.7
				c3.7,0,6.9-0.5,9.6-1.4c2.7-1,4.7-2.1,6.2-3.6c1.4-1.4,2.1-2.9,2.1-4.5c0-2.4-1.5-4.3-4.4-5.5c-2.9-1.3-7.5-2-13.5-2.3l-3.9-0.3
				c-4.3-0.2-7.3-0.4-8.8-0.7C232.9,499.7,231.9,500.9,231.2,502.4z M237.3,444.1c-1.9,2.7-2.9,6-2.9,9.8c0,4.5,1,8.3,2.9,11.4
				c1.9,3.1,4.5,4.7,7.8,4.7c3.2,0,5.7-1.3,7.6-4c1.9-2.7,2.8-5.8,2.8-9.4c0-4.5-0.9-8.4-2.7-11.7c-1.8-3.3-4.4-4.9-7.8-4.9
				C241.8,440,239.3,441.3,237.3,444.1z"/>
			<path d="M347.2,484.4c2.6-0.3,5.3-0.4,8.1-0.4v9h-23.8l-0.6-6.1h-0.1c-3.1,2.6-6.1,4.6-9,6c-2.9,1.4-6.1,2.1-9.8,2.1
				c-7.5,0-12.8-2.1-16-6.2c-3.2-4.1-4.8-10.8-4.8-20v-13.7c0-3.4,0.1-6.8,0.4-10.3l-8.7,0.4v-9c5.3,0,9.6-0.4,12.8-1.1
				c3.2-0.7,5.4-1.6,6.4-2.5h6.9V469c0,5.2,0.7,9,2.1,11.4c1.4,2.4,3.7,3.6,6.8,3.6c2,0,4.1-0.5,6.4-1.6c2.3-1.1,4.1-2.4,5.6-4.1
				v-23.1c0-3.7,0.2-7.2,0.5-10.3l-8.8,0.4v-9c5.2,0,9.4-0.4,12.7-1.1c3.2-0.7,5.4-1.6,6.6-2.5h6.9V474
				C347.7,477.8,347.5,481.2,347.2,484.4z"/>
			<path d="M388.3,484.4c2.6-0.3,5.3-0.4,8.2-0.4v9h-32.8v-7.7c3.1,0,5.1-0.8,6-2.5c0.9-1.6,1.3-4.3,1.3-8.1v-19.6
				c0-3.7,0.2-7.2,0.5-10.3l-8.7,0.4v-9c5.2,0,9.4-0.4,12.7-1.1c3.3-0.7,5.5-1.6,6.5-2.5h6.8V474
				C388.8,477.8,388.6,481.2,388.3,484.4z M387.9,405.7c1.8,1.9,2.7,4.2,2.7,7c0,2.7-0.9,4.9-2.6,6.8c-1.7,1.8-4,2.7-6.8,2.7
				c-2.9,0-5.2-0.9-7-2.7c-1.8-1.8-2.7-4.1-2.7-6.8c0-2.7,1-5,2.9-7c1.9-2,4.2-2.9,6.8-2.9C383.8,402.8,386.1,403.8,387.9,405.7z"/>
			<path d="M463,484.4c2.8-0.3,5.5-0.4,8.2-0.4v9h-23.8l-0.6-5.5h-0.1c-4.9,4.9-10.8,7.4-17.7,7.4c-4.9,0-9.3-1.2-13.1-3.7
				c-3.8-2.5-6.8-6-8.9-10.5c-2.1-4.5-3.2-9.8-3.2-15.7c0-6.3,1.3-12,3.9-17c2.6-5,6.2-8.9,10.9-11.8c4.7-2.8,10.1-4.2,16.2-4.2
				c3.2,0,6.9,0.7,11,2.1v-7.8c0-3.7,0.2-7.2,0.5-10.4c-2.7,0.3-5.6,0.4-8.8,0.4v-9c5.2,0,9.4-0.4,12.7-1.1c3.3-0.7,5.5-1.5,6.5-2.4
				h6.8V474C463.5,477.8,463.4,481.2,463,484.4z M425.5,447.3c-2.3,4.2-3.4,9.6-3.4,16c0,5.6,1.1,10.5,3.4,14.7
				c2.3,4.2,5.6,6.2,10,6.2c2.1,0,4.1-0.5,5.9-1.6c1.9-1,3.4-2.4,4.5-4.2V443c-0.9-0.6-2.1-1.1-3.8-1.6c-1.6-0.4-3.3-0.6-5.1-0.6
				C431.6,440.8,427.8,443,425.5,447.3z"/>
			<path d="M530,438.8c5.4,4.5,8,12,7.9,22.4l-41.1,0.8c0,6.9,1.4,12.4,4.2,16.4c2.8,4,7.3,6,13.5,6c2.9,0,6-0.7,9.4-2.2
				c3.4-1.5,6.4-3.7,9.1-6.8l5.6,5.1c-7.1,9.6-16.8,14.4-29.1,14.4c-6.2,0-11.5-1.3-16.2-3.8c-4.6-2.6-8.3-6.2-10.9-10.9
				c-2.6-4.7-3.9-10.2-3.9-16.6c0-5.5,1.3-10.7,3.9-15.6c2.6-4.9,6.3-8.7,11.1-11.6c4.8-2.9,10.2-4.4,16.4-4.4
				C517.9,432,524.6,434.3,530,438.8z M501.8,443.9c-2.1,2.3-3.5,5.6-4.2,9.8h23c-0.3-8.8-3.7-13.3-10.3-13.3
				C506.8,440.4,503.9,441.5,501.8,443.9z"/>
		</g>
	</g>
	<g id="hro">
		<g>
			<path d="M107.7,212.6c9.9-3.6,18.6-5.5,25.8-5.5c21.1,0,36.1,5.8,45.1,17.3c9,11.5,13.6,30.1,13.8,55.8v44.4
				c0,9.2-0.4,18.9-1.1,29.1c7.3-0.7,14.8-1.1,22.6-1.1v25.1h-92.1v-21.5c9,0,14.7-2.4,17.3-7.1c2.5-4.7,3.8-12.2,3.8-22.4
				l-0.4-46.9c0-14.6-2.3-25.2-6.9-32c-4.6-6.8-11.8-10.2-21.5-10.2c-5.6,0-11.3,1.2-17.3,3.5c-5.9,2.3-10.9,5.2-14.7,8.5v75
				c0,10.4-0.5,20.1-1.5,29.1c7.8-0.7,15.4-1.1,22.9-1.1v25.1H12v-21.5c6.3,0,10.9-1.1,13.8-3.5c2.9-2.3,4.7-5.5,5.5-9.5
				c0.7-4,1.1-9.5,1.1-16.6V190.8c0-10.4,0.5-20,1.5-28.7l-24.4,1.1V138c14.6,0,26.4-1,35.7-3.1c9.2-2.1,15.3-4.3,18.2-6.7h18.9
				v97.5C89.2,220.6,97.7,216.3,107.7,212.6z"/>
			<path d="M360.4,214.1c5.7,4.6,8.5,11.4,8.5,20.4c0,6.1-2,11.5-6,16.2s-9.9,7.1-17.6,7.1c-6.1,0-11.3-1.5-15.8-4.4
				c-4.5-2.9-7.1-7.9-7.8-14.9c-6.3,0-13,3.6-20,10.9c-7,7.3-11.6,14.3-13.8,21.1v54.2c0,10.4-0.5,20.1-1.5,29.1
				c7.3-0.7,14.9-1.1,22.9-1.1v25.1h-92.1v-21.5c8.7,0,14.4-2.4,16.9-7.1c2.5-4.7,3.8-12.2,3.8-22.4v-55.7c0-9.9,0.5-19.3,1.5-28
				l-24.4,1.1v-25.1c14.6,0,26.4-1,35.5-3.1c9.1-2.1,15.2-4.4,18.4-7.1H286c1,6.3,1.5,15.9,1.5,28.7h0.7
				c16-20.4,32.9-30.6,50.6-30.6C347.4,207.2,354.7,209.5,360.4,214.1z"/>
			<path d="M497.9,217.5c13.5,6.9,24,16.8,31.7,29.7c7.6,12.9,11.5,27.9,11.5,45.1c0,18.2-3.7,34.1-11.1,47.8
				c-7.4,13.7-17.7,24.3-30.9,31.8c-13.2,7.5-28.3,11.3-45.3,11.3c-17,0-32.3-3.5-45.8-10.4c-13.6-6.9-24.3-16.7-32-29.5
				c-7.8-12.7-11.6-27.6-11.6-44.6c0-17.9,4-33.8,12-47.7c8-13.8,18.7-24.6,32.2-32.4c13.5-7.8,28.2-11.6,44.2-11.6
				C469.3,207.2,484.4,210.6,497.9,217.5z M424.6,247.6c-5.8,11.4-8.7,25.5-8.7,42.2c0,19.2,3.1,35.6,9.5,49.3
				c6.3,13.7,16,20.6,29.1,20.6c23,0,34.6-19.8,34.6-59.3c0-18.9-2.9-35.3-8.7-49.1s-15-20.7-27.7-20.7
				C439.7,230.5,430.4,236.2,424.6,247.6z"/>
		</g>
	</g>
</g>
<g id="Layer_15">
	<g>
		<path class="st0" d="M681.6,205.4H557.9c-13.6,0-24.7-11.1-24.7-24.7V33.1c0-13.6,11.1-24.7,24.7-24.7h123.7
			c13.6,0,24.7,11.1,24.7,24.7v147.6C706.3,194.3,695.2,205.4,681.6,205.4z"/>
		<polygon class="st0" points="557.9,205.4 499.3,205.4 543.8,173.7 		"/>
	</g>
	<circle class="st1" cx="588.8" cy="60.4" r="27.5"/>
	<path class="st1" d="M615.9,177.6h-54.1v-75.7c0-2.8,2.3-5,5-5h44c2.8,0,5,2.3,5,5V177.6z"/>
	<circle class="st1" cx="657.3" cy="75.9" r="21"/>
	<path class="st1" d="M678.4,177.6h-42.2v-69.3c0-2.1,1.7-3.9,3.9-3.9h34.4c2.1,0,3.9,1.7,3.9,3.9V177.6z"/>
</g>
</svg>
